<svg xmlns="http://www.w3.org/2000/svg" width="16" height="16" viewBox="0 0 16 16" fill="none">
    <path d="M3.62791 13.8355L3.62791 13.8355L3.62501 13.8372C3.53638 13.8883 3.43584 13.9153 3.3335 13.9153C3.23115 13.9153 3.1306 13.8884 3.04194 13.8373C2.95328 13.7862 2.87963 13.7126 2.82839 13.624L2.17916 13.9995L2.82839 13.624C2.77715 13.5354 2.75012 13.4349 2.75001 13.3326L2.75001 2.66668H2.75004L2.74998 2.65993C2.74906 2.55709 2.77534 2.45584 2.82616 2.36643C2.87698 2.27702 2.95053 2.20263 3.03937 2.15081C3.1282 2.09899 3.22916 2.07158 3.332 2.07135C3.43484 2.07112 3.53592 2.09809 3.62498 2.14952L3.62498 2.14952L3.62791 2.1512L12.9612 7.48453L12.9612 7.48453L12.9636 7.48585C13.0533 7.53672 13.128 7.6105 13.18 7.69966C13.2319 7.78882 13.2593 7.89016 13.2593 7.99335C13.2593 8.09654 13.2319 8.19788 13.18 8.28703C13.128 8.37619 13.0533 8.44997 12.9636 8.50085L12.9636 8.50084L12.9612 8.50216L3.62791 13.8355Z" stroke="#16A34A" stroke-width="1.5" stroke-linecap="round" stroke-linejoin="round"/>
  </svg>